<!DOCTYPE svg PUBLIC "-//W3C//DTD SVG 1.1//EN" "http://www.w3.org/Graphics/SVG/1.1/DTD/svg11.dtd">
<!-- Uploaded to: SVG Repo, www.svgrepo.com, Transformed by: SVG Repo Mixer Tools -->
<svg version="1.1" id="Layer_1" xmlns="http://www.w3.org/2000/svg" xmlns:xlink="http://www.w3.org/1999/xlink" viewBox="0 0 511.999 511.999" xml:space="preserve" width="800px" height="800px" fill="#000000">
<g id="SVGRepo_bgCarrier" stroke-width="0"/>
<g id="SVGRepo_tracerCarrier" stroke-linecap="round" stroke-linejoin="round"/>
<g id="SVGRepo_iconCarrier"> <polygon style="fill:#ff0000;" points="287.127,467.665 234.21,414.749 392.96,255.999 234.21,97.249 287.127,44.332 498.793,255.999 "/> <polygon style="fill:#000000;" points="392.96,255.999 234.21,414.749 263.781,444.32 452.102,255.999 263.781,67.678 234.21,97.249 "/> <path d="M287.127,480.872l-66.122-66.123l158.75-158.75l-158.75-158.75l66.122-66.122l224.872,224.872L287.127,480.872z M247.417,414.749l39.71,39.711l198.461-198.461L287.127,57.539L247.416,97.25L406.166,256L247.417,414.749z"/> <rect x="274.647" y="136.151" transform="matrix(-0.7071 -0.7071 0.7071 -0.7071 474.9377 487.7044)" style="fill:#FFFFFF;" width="127.659" height="18.676"/> <polygon style="fill:#ff0000;" points="66.122,467.665 13.205,414.749 171.955,255.999 13.205,97.249 66.122,44.332 277.789,255.999 "/> <polygon style="fill:#000000;" points="171.955,255.999 13.205,414.749 42.777,444.32 231.097,255.999 42.777,67.678 13.205,97.249 "/> <path d="M66.122,480.872L0,414.749l158.75-158.75L0,97.249l66.122-66.122l224.872,224.872L66.122,480.872z M26.412,414.749 l39.71,39.711l198.461-198.461L66.122,57.539l-39.71,39.71l158.75,158.75L26.412,414.749z"/> <rect x="53.654" y="136.158" transform="matrix(-0.7071 -0.7071 0.7071 -0.7071 97.6748 331.4514)" style="fill:#FFFFFF;" width="127.659" height="18.676"/> </g>
</svg>