<!DOCTYPE svg PUBLIC "-//W3C//DTD SVG 1.1//EN" "http://www.w3.org/Graphics/SVG/1.1/DTD/svg11.dtd">
<!-- Uploaded to: SVG Repo, www.svgrepo.com, Transformed by: SVG Repo Mixer Tools -->
<svg version="1.1" id="Layer_1" xmlns="http://www.w3.org/2000/svg" xmlns:xlink="http://www.w3.org/1999/xlink" viewBox="0 0 511.999 511.999" xml:space="preserve" width="800px" height="800px" fill="#000000">
<g id="SVGRepo_bgCarrier" stroke-width="0"/>
<g id="SVGRepo_tracerCarrier" stroke-linecap="round" stroke-linejoin="round"/>
<g id="SVGRepo_iconCarrier"> <polygon style="fill:#ff0000;" points="224.872,44.332 277.789,97.249 119.039,255.999 277.789,414.749 224.872,467.665 13.205,255.999 "/> <polygon style="fill:#000000;" points="119.039,255.999 277.789,97.249 248.218,67.678 59.897,255.999 248.218,444.32 277.789,414.749 "/> <path d="M224.872,480.872L0,255.999L224.872,31.127l66.122,66.122l-158.75,158.75l158.75,158.75L224.872,480.872z M26.412,255.999 l198.46,198.461l39.711-39.711l-158.75-158.75l158.75-158.75l-39.711-39.711L26.412,255.999z"/> <rect x="109.682" y="357.161" transform="matrix(-0.7071 -0.7071 0.7071 -0.7071 37.0486 748.3453)" style="fill:#FFFFFF;" width="127.659" height="18.676"/> <polygon style="fill:#ff0000;" points="445.877,44.332 498.793,97.249 340.043,255.999 498.793,414.749 445.877,467.665 234.21,255.999 "/> <polygon style="fill:#000000;" points="340.043,255.999 498.793,97.249 469.222,67.678 280.901,255.999 469.222,444.32 498.793,414.749 "/> <path d="M445.877,480.872L221.005,255.999L445.877,31.127l66.122,66.122l-158.75,158.75l158.75,158.75L445.877,480.872z M247.417,255.999l198.46,198.461l39.711-39.711l-158.75-158.75l158.75-158.75l-39.711-39.711L247.417,255.999z"/> <rect x="330.687" y="357.156" transform="matrix(-0.7071 -0.7071 0.7071 -0.7071 414.3319 904.6093)" style="fill:#FFFFFF;" width="127.659" height="18.676"/> </g>
</svg>